<?xml version="1.0" encoding="UTF-8" standalone="no"?>
<svg
   xmlns:dc="http://purl.org/dc/elements/1.1/"
   xmlns:cc="http://creativecommons.org/ns#"
   xmlns:rdf="http://www.w3.org/1999/02/22-rdf-syntax-ns#"
   xmlns:svg="http://www.w3.org/2000/svg"
   xmlns="http://www.w3.org/2000/svg"
   xmlns:xlink="http://www.w3.org/1999/xlink"
   xmlns:sodipodi="http://sodipodi.sourceforge.net/DTD/sodipodi-0.dtd"
   xmlns:inkscape="http://www.inkscape.org/namespaces/inkscape"
   version="1.1"
   width="399.99969"
   height="399.99969"
   id="svg29"
   viewBox="0 0 399.99969 399.99969"
   sodipodi:docname="argentina-national-football-team-logo-2022.svg"
   inkscape:version="0.92.0 r15299"
   inkscape:export-filename="C:\Users\suitedoalex\sites\argentina-national-football-team-logo-0.png"
   inkscape:export-xdpi="983.04077"
   inkscape:export-ydpi="983.04077">
  <metadata
     id="metadata35">
    <rdf:RDF>
      <cc:Work
         rdf:about="">
        <dc:format>image/svg+xml</dc:format>
        <dc:type
           rdf:resource="http://purl.org/dc/dcmitype/StillImage" />
        <dc:title></dc:title>
      </cc:Work>
    </rdf:RDF>
  </metadata>
  <defs
     id="defs33">
    <linearGradient
       inkscape:collect="always"
       id="linearGradient4522">
      <stop
         style="stop-color:#c7a447;stop-opacity:1"
         offset="0"
         id="stop4518" />
      <stop
         style="stop-color:#8a743e;stop-opacity:1"
         offset="1"
         id="stop4520" />
    </linearGradient>
    <linearGradient
       inkscape:collect="always"
       id="linearGradient4506">
      <stop
         style="stop-color:#ffe26d;stop-opacity:1"
         offset="0"
         id="stop4502" />
      <stop
         style="stop-color:#998d4f;stop-opacity:1"
         offset="1"
         id="stop4504" />
    </linearGradient>
    <radialGradient
       inkscape:collect="always"
       xlink:href="#linearGradient4506"
       id="radialGradient4510"
       cx="210.9558"
       cy="252.38402"
       fx="210.9558"
       fy="252.38402"
       r="45.123945"
       gradientTransform="matrix(1.3423346,0.40089476,-0.47190805,1.5801117,144.88167,-328.40158)"
       gradientUnits="userSpaceOnUse" />
    <radialGradient
       inkscape:collect="always"
       xlink:href="#linearGradient4522"
       id="radialGradient4524-5-8"
       cx="203.17676"
       cy="63.158333"
       fx="203.17676"
       fy="63.158333"
       r="18.049875"
       gradientTransform="matrix(1.8196528,2.0497214,-0.92652744,0.82253006,-137.43055,-534.48432)"
       gradientUnits="userSpaceOnUse" />
    <radialGradient
       inkscape:collect="always"
       xlink:href="#linearGradient4522"
       id="radialGradient4524-5-8-7-3"
       cx="203.17676"
       cy="63.158333"
       fx="203.17676"
       fy="63.158333"
       r="18.049875"
       gradientTransform="matrix(2.7198872,3.0637773,-1.3849071,1.2294592,-209.5036,-783.17803)"
       gradientUnits="userSpaceOnUse" />
    <radialGradient
       inkscape:collect="always"
       xlink:href="#linearGradient4522"
       id="radialGradient4524-5-8-7-3-8"
       cx="203.17676"
       cy="63.158333"
       fx="203.17676"
       fy="63.158333"
       r="18.049875"
       gradientTransform="matrix(1.132645,1.2758515,-0.57671808,0.51198478,96.268848,-241.65864)"
       gradientUnits="userSpaceOnUse" />
    <radialGradient
       inkscape:collect="always"
       xlink:href="#linearGradient4522"
       id="radialGradient4524-5-8-8-7-6-8"
       cx="204.00409"
       cy="61.483582"
       fx="204.00409"
       fy="61.483582"
       r="18.049875"
       gradientTransform="matrix(0.54013932,0.75800157,-1.9558087,1.3936748,343.00326,-181.48256)"
       gradientUnits="userSpaceOnUse" />
    <radialGradient
       inkscape:collect="always"
       xlink:href="#linearGradient4522"
       id="radialGradient4524-5-8-8-7-1"
       cx="204.0041"
       cy="61.483585"
       fx="204.0041"
       fy="61.483585"
       r="18.049875"
       gradientTransform="matrix(0.54708662,0.7530016,-2.4968236,1.8140416,299.5418,-206.40612)"
       gradientUnits="userSpaceOnUse" />
    <radialGradient
       inkscape:collect="always"
       xlink:href="#linearGradient4522"
       id="radialGradient4524-5-8-7-3-8-9-9"
       cx="182.70331"
       cy="62.507671"
       fx="182.70331"
       fy="62.507671"
       r="18.049875"
       gradientTransform="matrix(0.83786417,1.1532231,-3.4889615,2.5348689,358.76507,-317.84764)"
       gradientUnits="userSpaceOnUse" />
  </defs>
  <sodipodi:namedview
     pagecolor="#ffffff"
     bordercolor="#666666"
     borderopacity="1"
     objecttolerance="10"
     gridtolerance="10"
     guidetolerance="10"
     inkscape:pageopacity="0"
     inkscape:pageshadow="2"
     inkscape:window-width="1920"
     inkscape:window-height="1017"
     id="namedview31"
     showgrid="false"
     inkscape:zoom="0.59000045"
     inkscape:cx="370.44475"
     inkscape:cy="160.27625"
     inkscape:window-x="-8"
     inkscape:window-y="-8"
     inkscape:window-maximized="1"
     inkscape:current-layer="Layer1000-0" />
  <g
     id="Layer1000-0"
     transform="matrix(1.4150059,0,0,1.4150059,-222.40324,-11.731875)"
     inkscape:export-filename="C:\Users\alex\sites\afa-seleccion-argentina-futbol-logo-4.png"
     inkscape:export-xdpi="185.41064"
     inkscape:export-ydpi="185.41064">
    <path
       style="fill:none;fill-opacity:1;fill-rule:evenodd;stroke:#ffffff;stroke-width:6.30951452;stroke-linejoin:round;stroke-miterlimit:4;stroke-dasharray:none;paint-order:stroke markers fill"
       d="m 249.7789,82.268148 v 8.88909 h -8.73313 v 41.432322 h 8.73313 v 11.71042 l -0.0883,0.007 -0.006,-0.0442 c -0.18879,-1.38923 -0.38614,-2.77662 -0.5673,-4.16435 -0.1246,-0.49921 -0.20621,-1.00735 -0.28435,-1.51418 l -0.008,-0.0442 c -0.21463,-1.24863 -0.43386,-2.4973 -0.69981,-3.73922 -0.15886,-1.05794 -1.01099,-1.57357 -1.79576,-0.6584 -0.56876,0.6164 -1.0644,1.31979 -1.55973,1.99591 -0.3519,0.48023 -0.69907,0.96251 -1.03798,1.45207 l -0.003,0.004 c -0.2191,0.29167 -0.43813,0.58323 -0.65702,0.8751 l -0.0497,0.0663 -0.0317,-0.0759 c -0.57434,-1.34848 -1.12276,-2.72567 -1.80542,-4.02355 l -0.0456,-0.0883 -0.0455,-0.0676 c -0.49199,-0.73156 -1.30419,-0.56719 -1.66187,0.19324 -0.71436,1.51831 -1.48109,3.01034 -2.23194,4.5108 l -0.0359,0.0704 -0.0455,-0.0649 c -0.38262,-0.54741 -0.77389,-1.08806 -1.17325,-1.62323 l -0.01,-0.0124 c -0.24961,-0.33445 -0.49831,-0.66927 -0.74812,-1.00347 -0.5893,-0.78832 -1.15516,-1.60969 -1.80266,-2.34926 -0.79888,-0.79941 -1.51249,-0.0415 -1.74883,0.80333 -0.46189,1.44219 -0.81651,2.92057 -1.1774,4.39072 -0.1815,0.73897 -0.35647,1.47974 -0.52313,2.22227 -0.22487,1.00104 -0.41523,2.01019 -0.588,3.02147 -0.24575,1.43963 -0.5466,3.0313 -0.5466,4.4901 0,0.85873 0.33043,2.00995 0.57144,2.84064 0.41352,1.42514 0.92938,2.82601 1.53765,4.17953 0.31543,0.7022 0.65747,1.39352 1.03936,2.06216 l 0.15183,0.26778 -0.22498,-0.20981 c -0.23735,-0.21967 -0.56472,-0.42259 -0.89857,-0.40028 -0.10717,0.0166 -0.20674,0.0505 -0.29953,0.10629 -0.68248,0.40905 -0.90831,2.36229 -1.07387,3.10704 -0.60858,2.73792 -1.25606,5.46644 -1.79439,8.21965 -0.50904,2.60379 -1.38102,6.33189 -0.80332,8.93051 0.53904,2.81357 1.86736,5.25047 3.59014,7.51018 0.908,1.19094 1.95763,2.32995 3.13051,3.26439 0.4382,0.34928 1.37484,1.03854 1.91309,1.12357 l 0.058,0.008 -0.99105,2.64326 -0.0511,-0.0731 c -0.80873,-1.15414 -1.67624,-2.26931 -2.54802,-3.3762 -0.63557,-0.80729 -1.269,-1.61631 -1.9131,-2.4169 -0.37145,-0.46142 -0.73884,-0.94313 -1.15806,-1.36235 -0.1483,-0.14842 -0.34538,-0.25553 -0.55626,-0.27468 -0.69134,-0.0625 -0.96523,0.77152 -1.0504,1.31542 -0.42743,2.20944 -0.81118,4.42724 -1.17739,6.6475 -0.31358,1.90032 -0.6435,3.80952 -0.8061,5.7296 -0.16325,1.92951 -0.15917,5.04038 0.51899,6.84903 0.8945,2.23753 2.12888,4.26738 3.63846,6.14231 1.64652,2.04468 3.17923,3.54165 5.46873,4.86001 l 0.011,0.007 0.008,0.011 c 0.2191,0.40512 0.54172,0.81734 0.84198,1.16772 l 0.001,0.003 c 0.57644,0.69134 1.21994,1.33048 1.96968,1.83303 l 0.0138,0.01 0.7564,2.64602 -0.0718,-0.011 c -0.88963,-0.13583 -1.77985,-0.2752 -2.66949,-0.4141 l -0.003,-0.001 c -0.48845,-0.0814 -0.97551,-0.16651 -1.46449,-0.2457 -0.84816,-0.13788 -1.69709,-0.27002 -2.54802,-0.38924 -0.4706,-0.0661 -0.9897,-0.16702 -1.46312,-0.16702 -0.68628,0 -1.42962,0.46119 -0.75502,1.13598 0.27139,0.31026 0.50585,0.80777 0.70119,1.17602 0.42684,0.80426 0.84686,1.61295 1.2823,2.41275 1.35615,2.49088 2.76384,4.95299 4.2513,7.36801 0.29351,0.4765 0.60998,0.93876 0.89719,1.41757 1.2548,1.95183 2.61317,4.01563 4.35483,5.58329 l 0.0704,0.0621 c 0.45381,0.39435 0.96184,0.71491 1.48244,1.01866 0.31602,0.21088 0.6503,0.39532 0.99105,0.56592 1.60294,0.85505 3.33556,1.46856 5.10294,1.88963 1.03694,0.2961 2.09954,0.49206 3.16364,0.66115 2.19206,0.34835 5.47493,0.54519 7.60818,-0.0952 0.50257,-0.12552 1.03887,-0.23604 1.55836,-0.23604 0.12612,0 0.47083,-0.4042 0.55488,-0.50518 l 0.011,-0.0138 0.0166,-0.003 c 0.3689,-0.0686 0.61724,-0.38632 0.6446,-0.75364 0.0207,-0.2788 0.0447,-0.55712 0.0856,-0.83369 l 0.01,-0.0635 0.058,0.0276 c 1.01502,0.48581 2.03058,0.96942 3.05597,1.4355 l 1.28091,0.61561 -1.274,0.89443 -5.2893,3.87035 c -0.5591,0.63242 -0.49137,1.36096 0.32575,1.70604 0.64074,0.27063 1.30584,0.48624 1.96554,0.70534 0.98288,0.32645 1.97084,0.63655 2.96073,0.93859 l 0.0952,0.0276 c 1.41882,0.40919 2.85333,0.7574 4.28443,1.11528 0.53228,0.12014 1.06394,0.24543 1.59701,0.36164 3.65524,0.79703 6.40188,0.73206 9.99747,-0.32438 l 0.12284,-0.0359 -0.069,0.10628 c -0.40643,0.62665 -0.80676,1.26549 -1.15945,1.9269 -0.234,0.39021 -0.54896,1.04428 -0.47344,1.50314 0.12611,0.3177 0.30342,0.43213 0.62389,0.52451 0.86397,0.2493 2.31915,0.0197 3.20504,-0.14079 2.94068,-0.53286 5.76767,-1.27921 8.1258,-3.21195 0.65229,-0.53478 1.27915,-1.15184 1.7019,-1.89101 0.81747,-1.27853 0.95699,-2.76331 0.86269,-4.24439 l -0.0111,-0.18082 0.098,0.15183 c 0.75553,1.16942 2.3138,1.87699 3.67849,1.91308 1.72591,0.0457 3.16335,-0.50614 4.14917,-1.9683 l 0.10076,-0.14769 -0.0138,0.17806 c -0.0818,1.06319 -0.0118,2.5717 0.4417,3.54322 0.14304,0.2868 0.28768,0.5713 0.46378,0.83783 l 0.0248,0.0373 0.069,0.0952 c 0.85859,1.1828 2.06847,2.1154 3.31547,2.85583 1.53241,0.85951 3.24156,1.48581 4.96077,1.84407 0.8182,0.17056 5.13988,0.9484 5.29205,-0.33127 0.0774,-0.65177 -1.2741,-2.70485 -1.67291,-3.29062 l -0.0745,-0.11042 0.12699,0.0387 c 1.69966,0.50722 3.71839,0.90547 5.49357,0.90547 2.74941,0 5.62506,-0.79803 8.26382,-1.51004 0.24739,-0.0988 0.51218,-0.13892 0.76331,-0.23879 0.22506,-0.0636 0.45029,-0.12855 0.67496,-0.19325 1.22429,-0.35267 2.44447,-0.71617 3.66055,-1.09595 0.69527,-0.21727 1.41304,-0.4139 2.08976,-0.69566 0.31621,-0.0971 0.58951,-0.36233 0.66392,-0.68877 0.10749,-0.47112 -0.22361,-0.88155 -0.5742,-1.15255 -1.21606,-0.98484 -2.48792,-1.90247 -3.76131,-2.81166 -0.84999,-0.60708 -1.70651,-1.20655 -2.58667,-1.76953 l -0.0759,-0.0483 0.0828,-0.0345 c 1.44094,-0.60932 2.90759,-1.23069 4.2734,-1.99591 l 0.0814,-0.0469 -0.011,0.0939 c -0.12704,1.00568 0.80664,1.78344 1.6674,2.07734 2.77176,0.87907 5.65853,0.71594 8.504,0.37821 1.21102,-0.14383 2.41981,-0.36623 3.5929,-0.7081 1.69836,-0.43583 3.40762,-1.0148 4.96078,-1.84269 0.85485,-0.38464 1.65872,-0.87773 2.39619,-1.45621 l 0.01,-0.008 0.0124,-0.001 c 0.007,-7.1e-4 0.0141,-0.004 0.0207,-0.006 l 0.0235,-0.008 0.011,-0.01 c 0.01,-0.007 0.02,-0.0134 0.0317,-0.0248 1.92585,-1.55307 3.93416,-4.85523 5.24789,-6.9898 l 0.0938,-0.15322 c 0.45513,-0.76798 0.90447,-1.53836 1.36374,-2.30371 0.76869,-1.28096 1.49833,-2.58482 2.22779,-3.88829 0.53845,-0.96201 1.0729,-1.92683 1.59838,-2.89585 0.30655,-0.5657 0.63486,-1.12748 0.90685,-1.73089 0.45026,-0.42987 0.55752,-0.98141 -0.0994,-1.26297 -0.55782,-0.18622 -5.04277,0.63199 -5.9477,0.79228 l -0.0952,0.0166 c -0.90374,0.16424 -1.80903,0.31908 -2.71781,0.45412 l -0.0773,0.011 0.0248,-0.0731 c 0.14266,-0.41418 0.28378,-0.8308 0.41823,-1.24779 0.12347,-0.38262 0.30728,-0.86211 0.3575,-1.25606 l 0.003,-0.0221 0.018,-0.011 c 0.69433,-0.47612 1.3921,-1.17591 1.92965,-1.82337 l 0.0718,-0.0856 0.0221,-0.029 c 0.28793,-0.38557 0.56791,-0.76974 0.78538,-1.20085 l 0.008,-0.0152 0.0152,-0.007 c 0.83963,-0.38859 1.71049,-1.03681 2.42655,-1.62323 1.97368,-1.61581 3.62459,-3.64883 4.92904,-5.83451 1.45019,-2.42992 2.61508,-4.84649 2.50385,-7.74897 -0.0275,-1.42348 -0.2101,-2.85291 -0.392,-4.26373 -0.20905,-1.62079 -0.46049,-3.23566 -0.69429,-4.85312 -0.30767,-2.12577 -0.80857,-4.21547 -1.18153,-6.32865 -0.24011,-1.08137 -1.17879,-1.03318 -1.84131,-0.33403 -1.06483,1.25288 -2.06668,2.55848 -3.06288,3.86621 -0.74902,0.98341 -1.49576,1.97327 -2.17948,3.00352 l -0.0511,0.0759 -0.0317,-0.0856 c -0.31673,-0.83293 -0.64747,-1.66181 -1.0159,-2.47349 l -0.0331,-0.0731 0.0801,0.007 c 0.86661,0.072 3.44035,-2.5037 4.02494,-3.18572 2.13175,-2.39816 3.98658,-5.46025 4.58258,-8.64478 0.37066,-1.98017 0.0893,-4.38931 -0.22223,-6.37144 -0.39803,-2.53242 -1.04585,-5.01131 -1.57353,-7.51847 -0.36884,-1.9448 -0.77851,-3.9201 -1.36926,-5.80966 -0.0974,-0.29219 -0.30395,-0.5802 -0.59077,-0.70947 -0.43108,-0.19436 -0.84492,0.0528 -1.14701,0.3575 l -0.22499,0.22637 0.15045,-0.28296 c 1.05591,-1.98772 2.03294,-4.13806 2.66258,-6.30105 0.8582,-2.94888 0.38471,-5.75727 -0.23603,-8.69309 -0.5277,-2.74225 -1.32759,-5.42555 -2.03179,-8.12442 -0.40657,-1.33624 -1.21896,-1.67034 -2.12704,-0.47344 -0.75144,0.93911 -1.47275,1.90325 -2.1712,2.88067 l -0.004,0.006 c -0.40845,0.54441 -0.82333,1.08399 -1.2257,1.63288 l -0.0469,0.0635 -0.0345,-0.0704 c -0.36824,-0.76045 -0.73513,-1.52172 -1.107,-2.28025 -0.36619,-0.74717 -0.71154,-1.50825 -1.12355,-2.22918 -0.52708,-0.7618 -1.2962,-0.8064 -1.78335,0.0207 l -0.0138,0.0235 h -0.003 l -0.003,0.0704 -0.0138,0.029 -0.029,-0.003 c -0.5998,1.30571 -1.13479,2.64172 -1.66601,3.97663 l -0.0331,0.0842 -0.0497,-0.0745 c -0.22099,-0.33085 -0.4625,-0.65084 -0.70671,-0.96482 l -10e-4,-0.003 c -0.84495,-1.16234 -1.67606,-2.34051 -2.59771,-3.44659 -0.67645,-0.8876 -1.56769,-0.44027 -1.79439,0.52175 -0.10289,0.35958 -0.14918,0.74646 -0.21257,1.11528 -0.11234,0.6538 -0.22386,1.30725 -0.34645,1.95864 l -0.007,0.0428 c -0.24109,1.4143 -0.47699,2.82997 -0.70947,4.24578 l -0.007,0.0428 -0.087,-0.007 v -9.47158 h 8.60199 V 91.157238 h -8.60199 v -8.88909 z m 0,72.430972 v 7.78072 l -0.0842,0.01 -0.008,-0.0414 c -0.21168,-0.96739 -0.4404,-2.18802 -0.85164,-3.07805 l -0.0483,-0.10214 -0.0414,-0.0718 c -0.18098,-0.31561 -0.40445,-0.46637 -0.77158,-0.48586 l -0.0828,-0.004 0.0455,-0.069 c 0.32415,-0.49049 0.62809,-0.99708 0.89167,-1.52385 l 0.007,-0.011 c 0.33818,-0.64356 0.65579,-1.3703 0.85164,-2.07044 z m 97.70001,0.94826 0.0911,0.23465 c 0.19735,0.50833 0.4357,0.99874 0.65978,1.49348 l 0.006,0.011 0.006,0.0124 0.0828,0.15321 c 0.20065,0.37015 0.41739,0.74246 0.66254,1.08491 l 0.0497,0.069 -0.0856,0.006 c -0.26136,0.0166 -0.46288,0.10951 -0.63217,0.31056 l -0.0497,0.0593 -0.04,0.0635 c -0.3229,0.51804 -0.51134,1.50669 -0.65564,2.11875 l -0.01,0.0414 -0.0842,-0.01 z m -112.48297,6.94012 0.0276,0.0331 c 0.30374,0.35801 0.60297,0.72086 0.90133,1.08353 l 0.011,0.0124 0.0814,0.0828 c 0.40938,0.41928 0.78087,0.87256 1.17187,1.30852 l 0.0221,0.0262 -0.42513,0.7564 -1.86065,-3.25336 z m 126.87944,0.1049 0.0718,0.0483 -1.75987,3.14845 -0.37682,-0.75641 0.0235,-0.0235 c 0.39486,-0.39784 0.75103,-0.83121 1.1208,-1.25193 l 0.0828,-0.0939 0.011,-0.0124 c 0.26652,-0.34167 0.53213,-0.68291 0.79919,-1.02418 z m -117.34022,0.45688 -1.27677,2.07873 -0.37682,-0.75503 0.85026,-0.66116 z m 108.0536,0.10214 0.029,0.0304 c 0.18451,0.18359 0.37409,0.36492 0.57835,0.52865 0.21596,0.1826 0.56023,0.47876 0.81023,0.59767 l 0.0387,0.0179 -0.32989,0.8972 -0.51899,-0.89858 -0.67359,-1.1208 z M 249.7789,184.46241 V 198.108 l -0.0925,-0.32575 c -0.27452,-0.96437 -0.56497,-1.92452 -0.85302,-2.88481 v 0.007 l -0.0925,-0.30643 c -0.59968,-1.98557 -1.21613,-3.9778 -1.9752,-5.90903 l -0.011,-0.0276 0.0193,-0.0207 c 0.73281,-0.84968 1.43473,-1.73445 2.05802,-2.66949 l 0.001,-0.003 c 0.30222,-0.43175 0.60546,-0.87741 0.85579,-1.34164 z m 97.70001,0.56454 0.0883,0.15183 c 0.20905,0.36043 0.43899,0.70823 0.65978,1.06145 l 0.007,0.011 0.0856,0.11318 c 0.59127,0.77863 1.23549,1.53516 1.92551,2.2278 l 0.0207,0.0221 -0.01,0.0276 c -0.6971,1.86091 -1.31659,3.75011 -1.92965,5.63989 l -0.0925,0.28434 c -0.21449,0.73839 -0.43394,1.47567 -0.66254,2.20984 l -0.0925,0.29677 z m -105.25988,5.00633 -0.11319,0.24155 c -0.31784,0.68485 -0.62317,1.37476 -0.92618,2.0732 -0.13984,0.23338 -0.2341,0.49944 -0.33679,0.75088 l -0.04,0.098 -0.0455,-0.0966 c -0.16391,-0.34501 -0.3607,-0.78807 -0.58525,-1.09181 l -0.0304,-0.04 0.0414,-0.0276 c 0.32119,-0.21522 0.64087,-0.51833 0.91651,-0.78953 l 0.0483,-0.0469 c 0.0109,-0.0109 0.0209,-0.0221 0.0317,-0.0331 l 0.0138,-0.0138 c 0.27678,-0.2807 0.55785,-0.55785 0.83646,-0.83646 z m 112.62237,0.11456 0.0276,0.0317 c 0.26077,0.29238 0.53041,0.58555 0.83093,0.84336 0.33595,0.33589 0.68362,0.66745 1.05317,0.96621 l 0.0331,0.0262 -0.0235,0.0359 c -0.20773,0.32139 -0.37978,0.69192 -0.54108,1.03936 l -0.0483,0.10353 -0.04,-0.10767 c -0.12048,-0.33393 -0.27555,-0.6596 -0.43479,-0.97863 -0.28735,-0.63203 -0.58822,-1.25901 -0.90686,-1.87582 l -0.0193,-0.0373 z m -105.01695,20.35245 0.0138,0.21808 c 0.12685,2.06496 0.87032,4.57412 1.91861,6.35764 l 0.0966,0.16564 -0.16288,-0.10214 c -0.93899,-0.58366 -1.89105,-1.14678 -2.85583,-1.68949 l -0.001,-0.001 c -0.42874,-0.25741 -0.85852,-0.52183 -1.31403,-0.73017 l -0.0552,-0.0262 0.0387,-0.0469 c 0.46608,-0.57139 0.87861,-1.23173 1.24226,-1.87306 l 0.0718,-0.12837 0.0221,-0.0414 c 0.33741,-0.6162 0.65594,-1.24078 0.90686,-1.89791 z m 97.56198,0.61699 0.0759,0.18634 c 0.20963,0.5151 0.48601,1.00903 0.76468,1.48795 l 0.008,0.0124 0.0856,0.13941 c 0.35939,0.57547 0.73136,1.14279 1.11114,1.70466 l 0.0304,0.0442 -0.0483,0.0248 c -0.37533,0.18957 -0.74093,0.39701 -1.10976,0.59906 l -0.0704,0.0373 -0.0221,0.0138 c -0.82139,0.4927 -1.64758,0.97971 -2.47624,1.46035 l -0.14494,0.0842 0.0801,-0.14768 c 0.83833,-1.5401 1.57014,-3.69397 1.70052,-5.44665 z m -105.45036,6.03189 0.0386,0.0483 c 0.27323,0.33262 1.09043,1.23529 1.51695,1.27401 0.0965,2e-4 0.14686,-0.001 0.24568,-0.0483 0.30295,-0.0629 0.62597,-0.31666 0.83095,-0.54245 l 0.0621,-0.0676 0.0193,0.0883 c 0.234,1.03191 0.49277,2.06291 0.80057,3.07531 l 0.029,0.0939 -0.0911,-0.0373 c -0.54947,-0.2202 -1.09062,-0.46156 -1.62875,-0.70671 l -0.0939,-0.0414 c -0.81483,-0.35735 -1.63658,-0.69946 -2.45554,-1.04489 l -0.0939,-0.0386 c -0.19271,-0.0771 -0.38584,-0.15328 -0.57835,-0.23051 l -0.0649,-0.0262 0.0483,-0.0511 c 0.23794,-0.24546 0.4567,-0.52039 0.65978,-0.79919 0.24495,-0.2941 0.49373,-0.58612 0.71913,-0.89581 z m 113.14964,0 0.0331,0.0497 c 0.18918,0.27991 0.37918,0.5583 0.57282,0.83507 l 0.008,0.0124 v -0.003 l 0.0814,0.087 c 0.23104,0.24496 0.43362,0.51489 0.66668,0.75779 l 0.0538,0.0552 -0.0731,0.0221 c -0.24666,0.0777 -0.49626,0.19338 -0.73156,0.31057 -0.82047,0.31529 -1.62795,0.66115 -2.43484,1.009 l -0.0952,0.0414 c -0.54198,0.2344 -1.08128,0.47552 -1.6108,0.73708 l -0.10767,0.0525 0.0428,-0.1118 c 0.37311,-0.98393 0.64701,-2.0672 0.83785,-3.10152 l 0.0165,-0.0897 0.0635,0.0662 c 0.19474,0.20145 0.49322,0.43622 0.7564,0.53417 l 0.0304,0.0124 v -10e-4 h 0.0469 c 0.063,0 0.12551,-1.9e-4 0.18634,0 0.43988,-0.0401 1.30706,-0.90689 1.61494,-1.2326 z m -92.59706,8.69447 0.12423,0.0497 c 0.97888,0.39371 1.98506,0.72289 2.99247,1.03522 l 0.0607,0.0193 c 1.82558,0.56602 3.68726,1.01998 5.55844,1.40653 l 0.19049,0.0386 -0.18773,0.0524 c -1.86816,0.52232 -3.72532,1.09032 -5.55983,1.72123 l -0.0621,0.0221 -0.0276,0.0124 c -0.37591,0.16588 -0.76068,0.31189 -1.14979,0.44307 l -0.0511,0.0166 -0.01,-0.0524 c -0.30374,-1.53989 -1.04343,-3.28249 -1.81232,-4.64883 z m 71.90092,0.0939 -0.069,0.12284 c -0.77323,1.36897 -1.37983,3.02466 -1.7585,4.54946 l -0.0124,0.0511 -0.0497,-0.0179 c -0.83798,-0.3088 -1.67599,-0.61763 -2.51766,-0.91652 l -0.0939,-0.0317 c -1.35629,-0.46017 -2.72691,-0.89056 -4.11466,-1.2464 l -0.21256,-0.0552 0.2167,-0.0373 c 1.4075,-0.24495 2.79265,-0.58686 4.17264,-0.95379 l 0.0359,-0.011 c 1.42723,-0.37967 2.9175,-0.80893 4.2734,-1.39685 z m -69.35014,9.54198 0.069,0.0442 c 0.16213,0.10217 0.32154,0.2092 0.47758,0.32023 l 0.0193,0.0138 0.069,0.0373 c 1.04849,0.56208 2.07257,1.16903 3.13465,1.70604 l 0.10214,0.0524 -0.10904,0.0345 c -1.05572,0.33982 -2.10019,0.7147 -3.13189,1.11942 l -0.0939,0.0386 c -1.03235,0.42541 -2.06606,0.85107 -3.07529,1.32922 l -0.0607,0.029 -0.0952,-1.08629 0.0607,0.01 c 0.50532,0.0773 1.77526,0.18615 2.15878,-0.19739 0.45177,-0.50235 0.45106,-2.66083 0.47207,-3.3693 z m 66.84905,0.0483 0.006,0.0773 c 0.0393,0.57586 0.22879,3.03282 0.60733,3.3693 0.38242,0.30597 1.5802,0.21792 2.05526,0.15322 l 0.069,-0.01 -0.0166,0.0676 c -0.0704,0.28739 -0.0732,0.69248 -0.0745,0.99105 l -10e-4,0.0745 -0.0663,-0.0317 c -1.46922,-0.69103 -2.97263,-1.30689 -4.48596,-1.89377 l -0.0938,-0.0345 c -0.56896,-0.2128 -1.13999,-0.41874 -1.71847,-0.60457 l -0.10628,-0.0331 0.098,-0.0524 c 0.60059,-0.32108 1.20974,-0.62929 1.793,-0.98829 0.63281,-0.32998 1.25844,-0.67513 1.86892,-1.04488 z m -38.35011,0.73431 0.0483,0.0676 c 0.009,0.0119 0.0161,0.0243 0.0249,0.0359 l 0.007,0.01 0.01,0.008 0.0704,0.0593 c 0.28123,0.23431 0.57965,0.44864 0.87649,0.66254 l 0.0373,0.0276 -0.0262,0.0387 c -0.21037,0.29928 -0.39976,0.67568 -0.51623,1.0228 l -0.0235,0.0718 -0.0538,-0.0538 c -0.11424,-0.11397 -0.23506,-0.23212 -0.37268,-0.32437 -0.28201,-0.22565 -0.60254,-0.44882 -0.91927,-0.62251 l -0.069,-0.0373 0.0663,-0.0428 c 0.2983,-0.19324 0.65957,-0.51883 0.80609,-0.8475 z m 10.00438,0.16288 0.0331,0.04 c 0.20722,0.25525 0.43522,0.50405 0.67911,0.72465 l 0.0428,0.0387 -0.0455,0.0345 c -0.25708,0.19068 -0.52296,0.37092 -0.77573,0.5673 l -0.0621,0.0483 -0.0304,0.0249 c -0.11976,0.10005 -0.24029,0.2013 -0.35335,0.30918 l -0.0538,0.0525 -0.0235,-0.0718 c -0.0901,-0.2872 -0.25171,-0.63522 -0.42376,-0.882 l -0.0262,-0.0359 0.0345,-0.0276 c 0.26057,-0.20793 0.52561,-0.41214 0.78676,-0.61975 l 0.0759,-0.0607 z"
       id="path10-7-0"
       inkscape:connector-curvature="0"
       inkscape:export-filename="C:\Users\suitedoalex\sites\argentina-national-football-team-logo-4.png"
       inkscape:export-xdpi="177.69354"
       inkscape:export-ydpi="177.69354" />
    <path
       d="m 265.57089,244.89096 -5.28812,3.87047 c -0.55911,0.63242 -0.49199,1.36115 0.32514,1.70623 0.64074,0.27061 1.30571,0.48636 1.96541,0.70545 0.98288,0.32645 1.97126,0.63615 2.96115,0.93819 l 0.0943,0.0273 c 1.41883,0.40919 2.854,0.75795 4.2851,1.11582 0.53228,0.12014 1.06371,0.24462 1.59677,0.36083 3.65525,0.79703 6.40249,0.73228 9.99808,-0.32415 l 0.12238,-0.0359 -0.0694,0.10689 c -0.40643,0.62665 -0.80649,1.26443 -1.15918,1.92585 -0.234,0.39022 -0.54927,1.04423 -0.47375,1.50308 0.12611,0.31772 0.30341,0.43267 0.62388,0.52506 0.86397,0.24929 2.31902,0.0205 3.20491,-0.14002 2.94068,-0.53286 5.76771,-1.27985 8.12584,-3.21259 0.65229,-0.53477 1.27946,-1.1523 1.70222,-1.89147 0.81747,-1.27853 0.95716,-2.76245 0.86286,-4.24355 l -0.0115,-0.18098 0.0982,0.1523 c 0.75552,1.16942 2.31457,1.87565 3.67926,1.91174 1.72591,0.0457 3.16331,-0.50537 4.14913,-1.96751 l 0.10006,-0.14823 -0.0137,0.17815 c -0.0818,1.06319 -0.0123,2.57145 0.44122,3.54297 0.14304,0.2868 0.28812,0.57251 0.46423,0.83904 l 0.0246,0.0368 0.0696,0.0955 c 0.8586,1.1828 2.06777,2.11522 3.31475,2.85565 1.53242,0.8595 3.24252,1.48503 4.96174,1.84329 0.81818,0.17055 5.13916,0.94875 5.29133,-0.3309 0.0774,-0.65178 -1.27337,-2.70518 -1.67217,-3.29094 l -0.0748,-0.10991 0.12737,0.0381 c 1.69966,0.50721 3.71817,0.90623 5.49335,0.90623 2.74941,0 5.62519,-0.79868 8.26396,-1.51069 0.24738,-0.0988 0.51168,-0.13839 0.76279,-0.23825 0.22507,-0.0636 0.44994,-0.12803 0.67461,-0.19272 1.22428,-0.35269 2.44514,-0.71706 3.66122,-1.09684 0.69526,-0.21727 1.41265,-0.41313 2.08936,-0.69489 0.31621,-0.0971 0.58964,-0.36326 0.66405,-0.6897 0.10748,-0.47112 -0.22304,-0.88149 -0.57363,-1.15249 -1.21607,-0.98484 -2.4887,-1.90163 -3.76207,-2.81082 -0.85,-0.60708 -1.70636,-1.20715 -2.58653,-1.77014 l -0.0755,-0.0483 0.0826,-0.035 c 1.44094,-0.60931 2.90754,-1.23076 4.27335,-1.99598 l 0.0817,-0.0457 -0.0117,0.093 c -0.12704,1.00569 0.80688,1.78411 1.66764,2.078 2.77178,0.87907 5.65924,0.71608 8.5047,0.37835 1.21103,-0.14383 2.41929,-0.36719 3.59238,-0.70905 1.69836,-0.43583 3.40695,-1.01502 4.9601,-1.84291 0.85485,-0.38464 1.65964,-0.87696 2.39711,-1.45544 l 0.01,-0.008 0.0123,-0.002 c 0.007,-9.6e-4 0.0135,-0.003 0.0201,-0.005 l 0.0235,-0.009 0.0115,-0.009 c 0.01,-0.007 0.0194,-0.0141 0.0312,-0.0255 1.92584,-1.55308 3.93444,-4.85478 5.24816,-6.98935 l 0.0941,-0.15289 c 0.45512,-0.76798 0.90452,-1.53897 1.36379,-2.30432 0.76869,-1.28096 1.49821,-2.58504 2.22767,-3.88851 0.53845,-0.96201 1.07303,-1.92624 1.5985,-2.89527 0.30656,-0.56569 0.63404,-1.12808 0.90603,-1.73149 0.45026,-0.42986 0.55721,-0.98136 -0.0997,-1.26293 -0.55781,-0.18622 -5.04244,0.63183 -5.94736,0.79213 l -0.0944,0.017 c -0.90373,0.16424 -1.80977,0.31864 -2.71855,0.45367 l -0.0769,0.0115 0.0253,-0.0737 c 0.14266,-0.41418 0.28256,-0.82972 0.41701,-1.24671 0.12348,-0.38262 0.30786,-0.86306 0.35807,-1.25702 l 0.003,-0.021 0.0175,-0.0119 c 0.69434,-0.47612 1.39277,-1.17532 1.9303,-1.82277 l 0.0716,-0.0865 0.0212,-0.0283 c 0.28793,-0.38557 0.56916,-0.76988 0.78662,-1.20099 l 0.008,-0.0147 0.0148,-0.007 c 0.83963,-0.38858 1.7103,-1.03754 2.42637,-1.62396 1.97367,-1.6158 3.62421,-3.64782 4.92866,-5.8335 1.4502,-2.42992 2.61548,-4.84646 2.50425,-7.74894 -0.0275,-1.42348 -0.20996,-2.85328 -0.39186,-4.2641 -0.20905,-1.62079 -0.46108,-3.23561 -0.69488,-4.85307 -0.30767,-2.12578 -0.808,-4.21607 -1.18096,-6.32925 -0.2401,-1.08137 -1.17887,-1.03301 -1.8414,-0.33386 -1.06483,1.25288 -2.06646,2.55918 -3.06266,3.86691 -0.74902,0.98341 -1.49528,1.97218 -2.179,3.00243 l -0.0509,0.0767 -0.0326,-0.0859 c -0.31673,-0.83293 -0.64672,-1.66213 -1.01516,-2.4738 l -0.0332,-0.0733 0.0801,0.007 c 0.86661,0.072 3.44048,-2.50301 4.02507,-3.18503 2.13175,-2.39816 3.98614,-5.46022 4.58214,-8.64474 0.37066,-1.98017 0.0885,-4.39002 -0.22304,-6.37216 -0.39803,-2.53241 -1.04475,-5.01121 -1.57244,-7.51836 -0.36883,-1.94481 -0.779,-3.91973 -1.36975,-5.80929 -0.0974,-0.2922 -0.30374,-0.58071 -0.59055,-0.70998 -0.43109,-0.19436 -0.84494,0.0528 -1.14704,0.35748 l -0.22559,0.22749 0.15046,-0.28294 c 1.05591,-1.98771 2.03333,-4.13863 2.66298,-6.30162 0.8582,-2.94888 0.38465,-5.758 -0.23608,-8.69382 -0.5277,-2.74225 -1.3271,-5.42472 -2.0313,-8.12359 -0.40657,-1.33623 -1.21882,-1.66988 -2.1269,-0.47297 -0.75144,0.9391 -1.47367,1.90222 -2.17211,2.87965 l -0.004,0.006 c -0.40845,0.54442 -0.82341,1.08378 -1.22578,1.63267 l -0.0464,0.0635 -0.0342,-0.0707 c -0.36824,-0.76044 -0.73615,-1.52094 -1.10801,-2.27947 -0.3662,-0.74717 -0.7118,-1.50905 -1.12381,-2.22998 -0.52709,-0.7618 -1.29619,-0.80551 -1.78332,0.0216 l -0.0137,0.0233 h -0.002 l -0.003,0.0705 -0.0141,0.0283 -0.0281,-0.002 c -0.59981,1.30571 -1.13511,2.64173 -1.66634,3.97663 l -0.0333,0.0835 -0.0498,-0.0749 c -0.221,-0.33084 -0.46189,-0.64988 -0.7061,-0.96385 l -0.002,-0.003 c -0.84495,-1.16234 -1.67565,-2.34121 -2.5973,-3.4473 -0.67645,-0.88759 -1.56818,-0.43958 -1.79488,0.52244 -0.10289,0.35958 -0.14883,0.74586 -0.2122,1.11469 -0.11235,0.6538 -0.22435,1.30781 -0.34693,1.95919 l -0.007,0.0429 c -0.24109,1.4143 -0.47678,2.82977 -0.70926,4.24559 l -0.007,0.043 -0.0868,-0.007 V 82.326918 h -97.65578 v 62.032052 l -0.0881,0.006 -0.006,-0.0439 c -0.18879,-1.38923 -0.38557,-2.77604 -0.56674,-4.16377 -0.1246,-0.49921 -0.2061,-1.00773 -0.28424,-1.51456 l -0.008,-0.0437 c -0.21464,-1.24863 -0.43503,-2.49724 -0.70098,-3.73916 -0.15886,-1.05794 -1.01109,-1.57376 -1.79586,-0.65859 -0.56876,0.6164 -1.06333,1.31888 -1.55866,1.995 -0.3519,0.48024 -0.69993,0.96352 -1.03884,1.45308 l -0.003,0.004 c -0.2191,0.29167 -0.43805,0.58346 -0.65695,0.87533 l -0.049,0.0657 -0.0322,-0.0754 c -0.57434,-1.34849 -1.12191,-2.72691 -1.80458,-4.0248 l -0.0457,-0.087 -0.0461,-0.0684 c -0.49199,-0.73156 -1.30407,-0.56772 -1.66175,0.19271 -0.71436,1.51831 -1.48129,3.01115 -2.23214,4.51161 l -0.0356,0.0708 -0.0453,-0.0649 c -0.3826,-0.54737 -0.77433,-1.08805 -1.17368,-1.62322 l -0.01,-0.0124 c -0.24961,-0.33446 -0.49731,-0.6704 -0.74712,-1.0046 -0.5893,-0.78832 -1.15525,-1.60872 -1.80275,-2.34828 -0.79888,-0.79941 -1.51312,-0.042 -1.74947,0.80281 -0.46188,1.44219 -0.81562,2.92093 -1.17651,4.39107 -0.1815,0.73898 -0.35748,1.47946 -0.52414,2.22198 -0.22487,1.00105 -0.41457,2.00991 -0.58734,3.02119 -0.24574,1.43963 -0.54652,3.03162 -0.54652,4.49041 0,0.85872 0.33038,2.00932 0.57139,2.84002 0.41352,1.42513 0.92906,2.82716 1.53733,4.18069 0.31543,0.70218 0.65767,1.39337 1.03956,2.06201 l 0.1523,0.26674 -0.22558,-0.20867 c -0.23735,-0.21968 -0.5647,-0.42316 -0.89856,-0.40085 -0.10716,0.0166 -0.20649,0.0504 -0.29928,0.10616 -0.68248,0.40905 -0.90846,2.3622 -1.07402,3.10695 -0.60858,2.73792 -1.25674,5.46712 -1.79507,8.22033 -0.50905,2.60379 -1.38084,6.33161 -0.80314,8.93023 0.53904,2.81357 1.86744,5.25078 3.59022,7.51048 0.908,1.19094 1.95728,2.32965 3.13016,3.2641 0.4382,0.34927 1.37606,1.03786 1.91431,1.12289 l 0.0571,0.009 -0.991,2.64284 -0.0515,-0.0733 c -0.80873,-1.15412 -1.67533,-2.26843 -2.54712,-3.37532 -0.63556,-0.80729 -1.26889,-1.61633 -1.91298,-2.41693 -0.37146,-0.46141 -0.73878,-0.94317 -1.158,-1.36239 -0.1483,-0.14842 -0.34529,-0.25597 -0.55617,-0.27513 -0.69134,-0.0625 -0.96516,0.77191 -1.05033,1.31581 -0.42743,2.20944 -0.81194,4.42716 -1.17815,6.64743 -0.31358,1.90031 -0.64317,3.80891 -0.80577,5.72899 -0.16325,1.92951 -0.1588,5.0408 0.51936,6.84946 0.89449,2.23752 2.12853,4.2679 3.63811,6.14283 1.64652,2.04468 3.17932,3.54107 5.46882,4.85943 l 0.0114,0.007 0.007,0.0116 c 0.2191,0.40512 0.54252,0.81732 0.84278,1.16771 l 9.7e-4,0.002 c 0.57644,0.69134 1.22001,1.33025 1.96975,1.8328 l 0.0145,0.01 0.7561,2.64547 -0.0727,-0.0111 c -0.88963,-0.13582 -1.77854,-0.27513 -2.66818,-0.41403 l -0.003,-5.9e-4 c -0.48845,-0.0814 -0.97631,-0.16667 -1.46529,-0.24587 -0.84816,-0.13787 -1.6973,-0.26968 -2.54823,-0.3889 -0.4706,-0.0661 -0.9895,-0.16779 -1.46292,-0.16779 -0.68628,0 -1.42879,0.46089 -0.75419,1.13569 0.27139,0.31024 0.5059,0.8082 0.70124,1.17644 0.42684,0.80426 0.84586,1.61266 1.2813,2.41246 1.35616,2.49088 2.76397,4.95393 4.25143,7.36896 0.29351,0.4765 0.61023,0.9385 0.89744,1.41731 1.25479,1.95183 2.61332,4.01514 4.35498,5.5828 l 0.0708,0.0623 c 0.45381,0.39436 0.96182,0.71463 1.48241,1.01838 0.31602,0.21088 0.64948,0.3954 0.99023,0.566 1.60295,0.85505 3.33627,1.46904 5.10366,1.8901 1.03694,0.29612 2.09993,0.49179 3.16403,0.66089 2.19206,0.34835 5.47401,0.54573 7.60726,-0.0947 0.50257,-0.12553 1.03879,-0.23583 1.55827,-0.23583 0.12612,0 0.47172,-0.40531 0.55577,-0.50629 l 0.0108,-0.0132 0.0169,-0.003 c 0.3689,-0.0686 0.61719,-0.38557 0.64455,-0.75289 0.0207,-0.2788 0.0439,-0.558 0.0848,-0.83457 l 0.01,-0.0635 0.0578,0.0277 c 1.01502,0.48582 2.03117,0.96909 3.05656,1.43517 l 1.27985,0.61607 z m -29.67147,-81.11582 v -9.6e-4 l 0.0811,0.0831 c 0.40938,0.41928 0.78065,0.87348 1.17165,1.30944 l 0.0227,0.0252 -0.42506,0.7563 -1.86109,-3.25263 0.0705,-0.0492 0.0279,0.0329 c 0.30374,0.35801 0.60321,0.72001 0.90157,1.08268 z m 8.71357,54.18511 c 0.234,1.0319 0.49312,2.0622 0.80092,3.0746 l 0.0286,0.0943 -0.0913,-0.0367 c -0.54947,-0.22021 -1.09015,-0.46201 -1.62828,-0.70715 l -0.0944,-0.0413 c -0.81483,-0.35735 -1.63602,-0.70012 -2.45498,-1.04554 l -0.0944,-0.0377 c -0.19271,-0.0771 -0.38557,-0.15401 -0.57808,-0.23124 l -0.0655,-0.0262 0.049,-0.0507 c 0.23794,-0.24546 0.45611,-0.52112 0.65919,-0.79992 0.24495,-0.2941 0.49442,-0.58518 0.71982,-0.89488 l 0.0359,-0.0495 0.0387,0.0472 c 0.27323,0.33262 1.09067,1.23596 1.51718,1.27467 0.0965,2.1e-4 0.146,-9.6e-4 0.24483,-0.0479 0.30294,-0.0629 0.62677,-0.31771 0.83175,-0.54351 l 0.0611,-0.0671 z m -4.46639,-25.96096 c 0.32119,-0.21522 0.64075,-0.51798 0.9164,-0.78918 l 0.0477,-0.0479 c 0.0109,-0.0109 0.0221,-0.0217 0.0329,-0.0327 l 0.0137,-0.0139 c 0.27677,-0.2807 0.55728,-0.55748 0.83589,-0.83609 l 0.18845,-0.18825 -0.11221,0.24166 c -0.31784,0.68485 -0.62402,1.37546 -0.92703,2.0739 -0.13984,0.23338 -0.2332,0.49867 -0.33589,0.75011 l -0.0406,0.0991 -0.0457,-0.0967 c -0.16391,-0.34501 -0.36082,-0.78904 -0.58536,-1.09278 l -0.0293,-0.0398 z m 3.5481,-28.12965 0.80314,-0.66162 -1.27559,2.07874 -0.37796,-0.75591 z m 5.0858,48.83315 0.0221,-0.0412 c 0.3374,-0.6162 0.65603,-1.24174 0.90695,-1.89888 l 0.0777,-0.20381 0.0136,0.21778 c 0.12684,2.06496 0.87047,4.57395 1.91877,6.35747 l 0.0971,0.16536 -0.16273,-0.10119 c -0.93898,-0.58366 -1.89055,-1.14763 -2.85532,-1.69034 l -0.002,-9.7e-4 c -0.42874,-0.25741 -0.85859,-0.52211 -1.31411,-0.73045 l -0.0556,-0.0255 0.0388,-0.0475 c 0.46608,-0.57139 0.879,-1.23241 1.24265,-1.87374 z m 0.0164,-17.74662 v 0.007 l -0.0925,-0.30635 c -0.59968,-1.98557 -1.21666,-3.97874 -1.97573,-5.90997 l -0.0104,-0.0266 0.0186,-0.0216 c 0.73281,-0.84968 1.43536,-1.73445 2.05865,-2.66949 l 9.8e-4,-0.002 c 0.30222,-0.43175 0.60596,-0.87722 0.85629,-1.34146 l 0.0889,-0.16457 v 13.64532 l -0.0926,-0.32572 c -0.27453,-0.96437 -0.56456,-1.92396 -0.85261,-2.88425 z m -0.0471,-35.62964 -0.0411,-0.0718 c -0.18098,-0.31562 -0.40532,-0.46595 -0.77245,-0.48543 l -0.0825,-0.005 0.0456,-0.0688 c 0.32415,-0.49048 0.62848,-0.9977 0.89206,-1.52446 l 0.006,-0.0109 c 0.33818,-0.64356 0.65643,-1.37026 0.85229,-2.0704 l 0.0928,-0.33162 v 7.78056 l -0.0842,0.009 -0.009,-0.0415 c -0.21168,-0.96739 -0.44061,-2.18791 -0.85184,-3.07794 z m 16.81873,76.58979 0.0696,0.0372 c 1.04849,0.56208 2.07237,1.16916 3.13445,1.70617 l 0.10248,0.0519 -0.10937,0.0353 c -1.05572,0.33983 -2.10033,0.71463 -3.13203,1.11936 l -0.0942,0.0387 c -1.03235,0.4254 -2.06536,0.85079 -3.0746,1.32894 l -0.0614,0.029 -0.0944,-1.08628 0.0595,0.009 c 0.50532,0.0773 1.77612,0.18655 2.15964,-0.19698 0.45178,-0.50235 0.45013,-2.66016 0.47113,-3.36863 l 0.003,-0.0824 0.07,0.0439 c 0.16213,0.10217 0.32119,0.20945 0.47723,0.32048 z m 0,-5.66928 -0.0281,0.0125 c -0.37591,0.16588 -0.75964,0.31186 -1.14875,0.44304 l -0.051,0.0171 -0.0104,-0.0528 c -0.30374,-1.53989 -1.04384,-3.28182 -1.81274,-4.64816 l -0.066,-0.11719 0.1248,0.0501 c 0.97888,0.39371 1.98478,0.72349 2.99219,1.03582 l 0.0611,0.019 c 1.82558,0.56601 3.68707,1.01961 5.55825,1.40616 l 0.19063,0.0395 -0.18748,0.0524 c -1.86816,0.52231 -3.72538,1.09015 -5.55988,1.72106 z m 28.01378,6.18726 0.009,0.008 0.0709,0.0591 c 0.28123,0.23431 0.57926,0.44895 0.8761,0.66285 l 0.0379,0.0273 -0.0267,0.0381 c -0.21037,0.29928 -0.39954,0.67572 -0.51601,1.02284 l -0.0244,0.0722 -0.0538,-0.0538 c -0.11424,-0.11398 -0.23438,-0.23189 -0.37199,-0.32414 -0.28201,-0.22565 -0.60268,-0.44849 -0.91941,-0.62218 l -0.0694,-0.0381 0.0664,-0.0431 c 0.2983,-0.19323 0.6603,-0.51857 0.80682,-0.84723 l 0.0338,-0.0761 0.0479,0.068 c 0.009,0.0119 0.0166,0.0243 0.0254,0.0359 z m 9.79492,1.50256 -0.0303,0.0252 c -0.11976,0.10006 -0.23937,0.20123 -0.35243,0.30911 l -0.0549,0.0525 -0.0227,-0.0726 c -0.0901,-0.28721 -0.25262,-0.63465 -0.42467,-0.88144 l -0.0254,-0.0363 0.0348,-0.0277 c 0.26057,-0.20794 0.52454,-0.41201 0.7857,-0.61962 l 0.0765,-0.0608 0.14193,-0.14193 0.0329,0.0407 c 0.20723,0.25525 0.43597,0.50335 0.67986,0.72395 l 0.0428,0.0385 -0.0463,0.0344 c -0.25708,0.19068 -0.5221,0.37074 -0.77486,0.56712 z m 26.47357,0.41253 c -0.56896,-0.2128 -1.14107,-0.41812 -1.71955,-0.60395 l -0.10605,-0.034 0.0982,-0.0526 c 0.6006,-0.32107 1.20959,-0.62848 1.79285,-0.98747 0.63281,-0.32999 1.25847,-0.67558 1.86895,-1.04533 l 0.0664,-0.0402 0.005,0.0773 c 0.0393,0.57585 0.22913,3.03365 0.60767,3.37014 0.38242,0.30596 1.58097,0.21798 2.05603,0.15327 l 0.0686,-0.01 -0.0163,0.0673 c -0.0704,0.2874 -0.0739,0.69285 -0.0752,0.99141 l -3.2e-4,0.0741 -0.067,-0.0314 c -1.46922,-0.69102 -2.97224,-1.30682 -4.48556,-1.89369 z m 9.7e-4,-8.59579 c -1.3563,-0.46017 -2.72676,-0.89093 -4.1145,-1.24677 l -0.21299,-0.0547 0.21654,-0.0376 c 1.40748,-0.24495 2.79369,-0.58779 4.17368,-0.95472 l 0.0349,-0.01 c 1.42723,-0.37967 2.91876,-0.80985 4.27466,-1.39777 l 0.12912,-0.056 -0.0692,0.12258 c -0.77323,1.36896 -1.37959,3.02439 -1.75826,4.54919 l -0.0128,0.0512 -0.0495,-0.0182 c -0.83798,-0.3088 -1.67605,-0.6168 -2.51771,-0.91569 z m 18.34667,-16.89051 0.0866,0.13877 c 0.35939,0.57547 0.73098,1.14298 1.11076,1.70486 l 0.0301,0.0444 -0.0481,0.0242 c -0.37533,0.18956 -0.7414,0.3969 -1.11023,0.59894 l -0.0699,0.0381 -0.0229,0.0137 c -0.82138,0.49271 -1.64645,0.97907 -2.47512,1.45971 l -0.1456,0.0844 0.0805,-0.1479 c 0.83833,-1.54009 1.5695,-3.69317 1.69987,-5.44586 l 0.0149,-0.20092 0.0759,0.18655 c 0.20964,0.51509 0.48694,1.00892 0.76561,1.48786 z m -5.2e-4,-26.55277 0.0848,0.11215 c 0.59127,0.77861 1.23543,1.53582 1.92545,2.22846 l 0.0214,0.0214 -0.0105,0.0284 c -0.69711,1.8609 -1.31574,3.75033 -1.9288,5.64009 l -0.0923,0.28418 c -0.2145,0.73839 -0.4347,1.47513 -0.66331,2.20931 l -0.0925,0.29627 v -12.04531 l 0.0882,0.15196 c 0.20905,0.36043 0.4395,0.70807 0.66029,1.06128 z m 0.007,-28.85235 0.0823,0.15216 c 0.20065,0.37015 0.41679,0.74252 0.66194,1.08497 l 0.0497,0.0694 -0.085,0.005 c -0.26136,0.0166 -0.4628,0.10997 -0.63209,0.31102 l -0.05,0.0598 -0.0403,0.0635 c -0.3229,0.51804 -0.51115,1.50703 -0.65545,2.11909 l -0.01,0.041 -0.0835,-0.01 v -5.64847 l 0.0913,0.23511 c 0.19736,0.50833 0.4349,0.99861 0.65898,1.49336 l 0.006,0.0112 z m 4.95432,61.02604 v -5.3e-4 h 0.0473 c 0.063,0 0.12494,0 0.18577,2e-4 0.43989,-0.0401 1.30832,-0.90696 1.6162,-1.23267 l 0.0405,-0.0429 0.0329,0.0488 c 0.18918,0.27991 0.37907,0.55932 0.57271,0.83608 l 0.009,0.0123 v -0.003 l 0.0816,0.0866 c 0.23104,0.24495 0.43373,0.51503 0.6668,0.75794 l 0.0528,0.0549 -0.0727,0.0229 c -0.24666,0.0777 -0.49568,0.19232 -0.73098,0.30951 -0.82047,0.31529 -1.6286,0.66213 -2.43549,1.00997 l -0.0944,0.0405 c -0.54199,0.23439 -1.08143,0.47559 -1.61095,0.73715 l -0.10748,0.053 0.0423,-0.1122 c 0.3731,-0.98393 0.64653,-2.06666 0.83735,-3.10098 l 0.0168,-0.0902 0.0637,0.0659 c 0.19474,0.20145 0.49272,0.43655 0.7559,0.53451 z m 0,-54.0002 -0.67277,-1.12198 0.0656,-0.0514 0.0295,0.0293 c 0.18451,0.1836 0.3733,0.36607 0.57756,0.5298 0.21596,0.1826 0.56096,0.47834 0.81096,0.59724 l 0.0391,0.0184 -0.33032,0.89598 z m 1.67382,25.75368 c 0.26077,0.29238 0.52972,0.58667 0.83025,0.84448 0.33595,0.33589 0.68379,0.66641 1.05334,0.96516 l 0.0329,0.0267 -0.0231,0.0357 c -0.20773,0.32139 -0.38051,0.69192 -0.5418,1.03936 l -0.0481,0.10414 -0.0392,-0.10801 c -0.12047,-0.33393 -0.27598,-0.65957 -0.43523,-0.9786 -0.28734,-0.63202 -0.58792,-1.25899 -0.90656,-1.87579 l -0.019,-0.037 0.0686,-0.0472 z m 6.16849,-26.41531 0.01,-0.0129 c 0.26653,-0.34167 0.53307,-0.6832 0.80013,-1.02447 l 0.0269,-0.0343 0.0728,0.0481 -1.76029,3.1496 -0.37763,-0.7563 0.0241,-0.0241 c 0.39487,-0.39784 0.75144,-0.83144 1.12119,-1.25216 z"
       style="fill:#02529f;fill-opacity:1;fill-rule:evenodd;stroke-width:0.65616655"
       id="path10-7"
       inkscape:connector-curvature="0"
       inkscape:export-filename="C:\Users\suitedoalex\sites\argentina-national-football-team-logo-4.png"
       inkscape:export-xdpi="177.69354"
       inkscape:export-ydpi="177.69354" />
    <path
       d="m 253.3805,210.22301 c 0,1.74802 0.99192,5.19664 3.68483,7.98403 2.74016,2.78759 6.236,4.25196 10.06277,5.38581 3.87421,1.1813 9.07104,2.07874 11.76395,2.45689 2.73996,0.37795 5.33838,0.56673 8.88207,2.26771 3.49566,1.70059 7.13962,4.34645 10.73029,7.27538 3.59074,-2.92893 7.23469,-5.57479 10.73035,-7.27538 3.5437,-1.70098 6.14212,-1.88976 8.88207,-2.26771 2.69291,-0.37815 7.88975,-1.27559 11.76395,-2.45689 3.82677,-1.13385 7.32262,-2.59822 10.06278,-5.38581 2.6929,-2.78739 3.68483,-6.23601 3.68483,-7.98403 V 86.066018 H 253.3805 Z"
       style="fill:url(#radialGradient4510);fill-opacity:1;fill-rule:evenodd;stroke-width:0.65616655"
       id="path12-1"
       inkscape:connector-curvature="0"
       inkscape:export-filename="C:\Users\suitedoalex\sites\argentina-national-football-team-logo-4.png"
       inkscape:export-xdpi="177.69354"
       inkscape:export-ydpi="177.69354" />
    <path
       d="m 307.42125,175.16927 c 0.0649,1.23485 0.26641,3.4473 1.937,3.4473 1.24659,0 1.18667,-3.63778 1.19751,-4.46823 0.0118,-0.91994 -0.003,-1.84028 0.0308,-2.75897 0.0501,-2.9607 0,-5.92184 0,-8.88259 0,-0.82284 -0.13556,-2.68327 -1.22835,-2.7874 -1.06331,-0.10138 -1.70708,1.45321 -1.74802,2.31587 -0.0946,0.94265 0.0495,1.57618 -0.40747,2.47919 -0.73551,1.45289 -2.46044,1.76516 -3.93858,1.77146 l -0.0474,2e-4 v -10.62991 l 0.0417,-0.005 c 1.66227,-0.19586 3.33129,-0.34225 5.00136,-0.45124 0.94751,-0.0619 1.89685,-0.11089 2.84652,-0.11089 2.56424,0 5.95163,0.89075 8.26882,1.98483 0.10675,0.0538 0.22284,0.0865 0.32959,0.14115 0.5139,0.26298 1.01298,0.55373 1.51352,0.84094 0.47951,0.27487 2.58424,1.57165 3.06914,1.28504 0.43412,-0.2565 -0.99284,-4.06687 -1.16449,-4.55268 -0.27567,-0.78084 -0.55558,-1.56017 -0.81976,-2.34495 -0.70491,-2.09585 -1.44612,-4.18241 -2.26842,-6.23824 -0.0726,-0.21797 -0.16352,-0.44435 -0.32999,-0.61213 -0.0231,-0.026 -0.0476,-0.0508 -0.0737,-0.0739 l -0.005,-0.005 c -0.57099,-0.50762 -1.4809,0.13871 -1.95413,0.50426 -1.95426,1.38701 -4.37748,2.01234 -6.75457,2.03072 -4.12716,0.032 -8.25097,-0.18899 -12.37774,-0.18899 -3.07268,0 -6.13981,0.23622 -9.21256,0.23622 -2.86699,0 -6.48267,-0.34298 -9.16554,-1.37007 -1.24528,-0.4767 -2.44888,-1.20807 -3.55498,-1.94757 -1.00125,-0.66942 -1.96902,-1.39073 -2.89972,-2.15505 -0.60211,-0.49436 -1.2544,-1.02591 -1.76555,-1.61391 -0.20348,-0.23418 -0.53845,-0.50721 -0.8714,-0.40622 -0.90492,0.27434 -0.38412,2.29618 -0.1683,2.90904 1.36168,3.60879 3.93608,6.8383 6.99223,9.16665 4.33235,3.30078 9.48306,3.20367 14.64085,2.65105 l 0.0522,-0.005 v 47.76348 c 0,2.53745 -0.97853,3.99087 -3.21258,5.14978 -0.64614,0.33537 -3.79514,1.83694 -1.79619,2.55085 0.57867,0.19305 1.17492,0.33327 1.76495,0.48655 0.84947,0.2208 1.69908,0.44212 2.54297,0.68392 1.14147,0.32717 2.38773,0.68747 3.44213,1.2399 0.65623,0.37493 1.28005,1.10335 1.77762,1.67027 0.68373,0.77932 1.35294,1.57428 2.11594,2.27866 0.2792,0.25782 0.57047,0.50316 0.87696,0.72764 2.8685,2.10123 5.75485,2.2757 8.97604,0.85018 2.11665,-0.93667 4.21711,-2.19218 5.52676,-4.15576 0.16816,-0.28051 0.26954,-0.67388 0.0897,-0.97297 -0.32697,-0.54369 -1.3853,-0.49789 -1.93123,-0.44606 -1.35446,0.12855 -2.75721,-0.0671 -4.0135,-0.59462 -0.74843,-0.31417 -1.76345,-0.90504 -2.17526,-1.62564 -0.65768,-1.15099 -2.28517,-4.0336 -3.37814,-4.66378 l -0.0237,-0.0135 v -3.16535 h 12.23639 c 1.20099,0 1.34645,-1.65558 -0.33235,-1.79528 -1.76777,-0.19639 -3.54186,-1.90348 -3.54186,-3.73207 0,-1.46825 1.13892,-3.70663 1.92311,-4.93884 l 0.0139,-0.022 h 12.04722 l 0.0131,0.0259 c 0.55944,1.09928 1.34585,2.9933 1.30976,4.22742 -0.068,1.36134 -1.1366,3.94527 -2.40844,4.58102 -0.88761,0.4672 -1.05041,1.41785 0.18785,1.41785 4.66134,0 9.32281,0 13.98422,0 0.90912,0 1.27651,-1.02618 0.56706,-1.60649 -1.05754,-0.86523 -2.24015,-2.52808 -2.78772,-3.78064 -0.37185,-0.91529 -0.68169,-1.85531 -1.00314,-2.78883 -0.49607,-1.44075 -0.98131,-2.88523 -1.46458,-4.33032 -0.48582,-1.4528 -0.96882,-2.90661 -1.45321,-4.36002 -1.33083,-3.99284 -2.69645,-7.97379 -4.05071,-11.95864 -0.94894,-2.79186 -1.89809,-5.58358 -2.84671,-8.37543 -0.47395,-1.39462 -0.96293,-2.78405 -1.41752,-4.18516 -0.46666,-1.43871 -1.18576,-0.0449 -1.46456,0.61396 -0.99823,2.35978 -1.98667,4.72369 -2.9765,7.087 -1.03845,2.47939 -2.08216,4.95668 -3.16535,7.41691 -2.18793,4.96974 -4.23116,10.00365 -6.51934,14.9291 -1.71417,3.69041 -2.92316,7.75116 -6.78115,9.79034 l -0.0694,0.0367 v -29.15023 l 0.0474,1.9e-4 c 2.16004,0.007 4.01351,0.49201 4.20453,2.97768 z M 253.47406,202.77 c 0.0694,0.29724 0.64482,0.3664 0.8922,0.3664 l 12.80705,2.1e-4 c 0.56187,0.0613 1.73556,0.003 1.69705,-0.80223 -0.019,-0.24456 -0.0904,-0.47245 -0.28084,-0.6378 -0.45085,-0.39173 -1.56909,-0.3361 -2.22309,-0.78084 -1.01484,-0.69003 -2.10682,-1.76974 -2.17323,-3.07066 -0.0887,-1.74317 1.03714,-3.64369 1.78227,-5.17041 l 0.0128,-0.0266 h 12.18914 l 0.0111,0.0313 c 0.65865,1.83228 1.50124,3.17926 1.07565,5.21298 -0.19384,0.92591 -0.61935,1.81424 -1.18708,2.56889 -0.3143,0.41772 -0.88201,1.05106 -1.36317,1.25755 -0.62796,0.28976 -0.50762,1.13418 0.23491,1.13418 2.34211,0 4.68423,0.0137 7.02615,0.0178 1.51759,0.003 3.03536,0.005 4.55294,0.002 0.81666,-9.7e-4 1.63583,0.021 2.45427,-0.0198 1.12617,0 1.48294,-0.83681 0.70786,-1.65262 -0.9908,-0.99061 -2.22078,-2.50353 -2.69303,-3.82637 -0.38583,-0.98169 -0.71463,-1.98477 -1.05708,-2.98195 -0.55315,-1.61036 -1.09757,-3.22374 -1.63976,-4.83765 -0.42579,-1.26745 -0.84967,-2.53536 -1.27244,-3.80373 -1.51496,-4.54488 -3.08942,-9.06973 -4.62972,-13.60608 -1.19265,-3.51317 -2.43346,-7.01015 -3.59074,-10.53541 -0.52414,-1.59625 -1.21902,-0.29632 -1.55905,0.5197 -0.92513,2.22117 -1.89474,4.4236 -2.83818,6.63725 l -0.0907,0.21291 c -2.03018,4.76331 -4.09868,9.51003 -6.14211,14.26769 -0.77651,1.80846 -1.55347,3.61679 -2.341,5.4206 -0.74121,1.6971 -1.4893,3.39152 -2.26542,5.07283 -0.55801,1.20859 -1.11305,2.42728 -1.77132,3.58529 -1.00532,1.7681 -2.32874,3.2137 -4.20471,4.06298 -0.42442,0.19212 -0.84016,0.30675 -1.30256,0.36161 -0.20722,0.0247 -0.54495,0.0334 -0.7185,0.15177 -0.0406,0.0275 -0.0739,0.059 -0.10007,0.0928 -0.0874,0.21915 -0.14567,0.55112 3.9e-4,0.77546 z m 18.8453,-24.62547 0.37756,-0.85078 4.15747,10.9608 h -9.07065 z m 51.87338,10.11002 h -9.02347 l 4.44506,-9.8152 0.51556,-1.14541 z"
       style="fill:#2d4492;fill-opacity:1;fill-rule:evenodd;stroke-width:0.65616655"
       id="path14-7"
       inkscape:connector-curvature="0"
       inkscape:export-filename="C:\Users\suitedoalex\sites\argentina-national-football-team-logo-4.png"
       inkscape:export-xdpi="177.69354"
       inkscape:export-ydpi="177.69354" />
    <path
       d="m 239.90979,137.89245 -1.88956,25.37022 c 0,0 -2.59882,-3.68522 -3.1185,-10.11041 -0.47225,-6.80292 5.00806,-15.25981 5.00806,-15.25981 z m 56.05427,102.75568 c -0.18897,2.45649 -0.4252,4.58266 -0.33071,5.05511 0.14174,0.51968 0.56693,1.88976 2.22048,1.98424 1.65353,0.14154 3.16534,-1.18129 3.25982,-2.45669 0.14174,-1.32303 0.28327,-4.29939 0.28327,-5.00786 0,-0.66161 -1.22795,-3.21258 -2.83444,-3.21258 -1.55905,0 -2.3622,1.13385 -2.59842,3.63778 z m 61.13556,-102.75568 1.88956,25.37022 c 0,0 2.59881,-3.68522 3.11849,-10.11041 0.47225,-6.80292 -5.00805,-15.25981 -5.00805,-15.25981 z m -44.92884,114.33026 c 0,0 1.84212,2.31516 2.36182,3.16554 0,0 -3.16517,-0.0472 -5.29114,-1.22854 -2.17323,-1.1809 -3.59035,-2.7874 -4.15748,-4.86613 0,0 3.87421,2.22066 7.0868,2.92913 z m 20.12574,-19.51177 c 0,0 -6.89762,-2.22026 -10.20469,-2.6929 -3.25985,-0.51969 -9.49585,0 -15.49604,4.86612 z m 1.65355,16.44111 c 0,0 -7.0868,-0.8504 -12.9923,-1.88976 -5.4803,0.70846 -13.84229,-0.80315 -17.7165,-2.83483 v 1.46456 c 0,0 1.74823,1.79546 6.04744,3.82676 4.29919,2.07873 6.99209,2.7874 9.77949,2.69291 2.7874,-0.14174 10.6299,-1.88957 14.88187,-3.25964 z m -5.9055,-4.34644 c 0,0 -2.0315,1.03916 -4.0628,1.60609 l 8.362,1.46477 c 0,0 -3.59034,-2.55118 -4.2992,-3.07086 z m 1.60629,-2.74036 -25.79522,0.28346 c 0,0 1.84252,1.70098 6.94487,2.7876 5.10255,1.13366 7.55904,0.99212 9.49604,0.47244 1.93721,-0.51969 8.31495,-3.07086 9.35431,-3.5435 z m 2.12598,-0.99192 c 0,0 -6.14152,-2.83464 -10.72438,-3.82677 -4.58267,-1.03937 -11.38601,-1.79526 -17.24406,3.25964 0,0 16.48815,0.28347 20.26747,0.4252 3.82676,0.0945 7.70097,0.14193 7.70097,0.14193 z m -0.56693,-7.13384 -12.70843,1.51181 c 0,0 3.25963,0.18877 7.03935,1.46456 0,0 4.58246,-2.26772 5.66908,-2.97637 z m 32.9765,-9.874 -8.59841,5.95255 c -1.74821,5.62203 -3.82676,7.03935 -6.80332,9.0236 -2.92894,1.98424 -7.41751,3.77971 -7.41751,3.77971 0,0 3.40177,-0.37815 7.512,-2.03168 4.06297,-1.6061 6.04722,-3.07086 7.08659,-4.15728 1.08662,-1.08681 5.10254,-6.94487 8.22065,-12.5669 z m -6.56711,0.37776 -1.13385,3.40157 5.99998,-4.15748 z m -1.84271,-1.13386 -17.76354,18.28362 c 0,0 1.37007,0.23602 5.29133,-1.98425 3.96829,-2.22067 6.9923,-4.96062 7.79525,-6.14191 0.8502,-1.1809 3.11791,-6.14172 4.67696,-10.15746 z m 0.75609,-2.22027 c 0,0 -6.9921,2.50373 -11.10213,5.43286 -4.15787,2.88189 -8.45687,6.94487 -8.97655,13.93697 0,0 5.43285,-5.29112 8.83462,-8.55116 3.40157,-3.21258 11.24406,-10.81867 11.24406,-10.81867 z m -6.09447,-2.97657 -4.72439,6.14192 c 0,0 1.5118,-1.08681 3.59055,-2.12598 z m 0.23622,-1.88956 c 0,0 -7.7482,3.59054 -10.81887,6.37794 -3.02342,2.7872 -5.05511,8.88167 -5.05511,8.88167 0,0 1.32283,0.23642 1.22835,0.99232 -0.14194,0.80315 -0.3305,0.99193 -2.03149,1.88976 l -0.14174,1.65335 c 0,0 1.41713,-1.7006 2.17323,-2.4567 0,0 0.23621,-2.59841 5.52754,-6.61395 z m 1.46457,-27.25978 0.28346,16.34642 c 0,0 -0.61416,2.26771 0,4.62971 l 0.047,3.40157 c 0,0 -0.33051,-0.23603 -1.1809,0.37815 0,0 -1.51162,-2.69291 -2.55098,-6.51967 -1.13386,-4.11042 -0.85059,-6.42518 0.80295,-11.24427 1.65354,-4.81869 2.59842,-6.99191 2.59842,-6.99191 z m 3.1179,6.47223 -1.74763,4.2994 -0.42559,-8.78738 z m 3.40177,-2.88169 -0.66142,25.22809 c 0,0 -2.03149,-1.79507 -3.21258,-5.71632 -1.18131,-3.87382 -0.70867,-8.17321 0.89782,-12.66139 1.65315,-4.44094 2.97618,-6.85038 2.97618,-6.85038 z m 1.84252,0.4252 -1.18091,24.09423 c 0,0 1.65355,-1.84251 3.07066,-5.9055 1.41732,-4.06278 1.65354,-7.84229 0.33051,-11.95252 -1.36988,-4.06299 -2.22026,-6.23621 -2.22026,-6.23621 z m 6.80333,-3.82677 -2.59842,10.20451 -1.55905,-4.48798 z m 1.22833,1.51162 -3.11848,12.09465 c 0,0 0.94527,3.16535 -1.74764,10.2047 0,0 3.59034,-3.16534 5.43286,-9.63776 1.08641,-3.73248 -0.56674,-12.66159 -0.56674,-12.66159 z m -19.37003,-27.68479 1.36988,11.14978 c -1.22833,2.92894 -0.51969,8.78686 1.32303,11.66887 0,0 -0.61417,0.0945 -0.80334,0.66162 -2.17322,-2.59842 -4.11024,-8.07872 -4.34645,-11.10214 -0.23602,-3.02382 1.9372,-10.77163 2.45688,-12.37813 z m 3.73228,4.48819 -1.27579,3.07086 -0.94488,-6.70865 z m 3.87382,-3.96851 0.47262,26.31491 c 0,0 -2.31515,-1.84271 -3.77972,-6.2362 -1.51199,-4.39369 -0.14172,-10.6299 0.94488,-13.79506 1.08682,-3.16554 2.36222,-6.28365 2.36222,-6.28365 z m 1.08641,2.0317 1.0868,22.62948 c 0,0 0.18898,-0.66123 1.13386,-0.56673 0,0 2.17322,-5.10256 2.03168,-10.25176 -0.14192,-3.82676 -4.25234,-11.81099 -4.25234,-11.81099 z m 4.67754,21.54307 c 3.6376,-8.31515 1.65354,-12.42498 1.65354,-12.42498 l 1.65354,-12.8978 c 0,0 1.55906,6.18895 2.03129,8.40942 0.4252,2.22067 0.99213,5.38582 -1.27558,10.34623 -2.22066,5.05511 -4.06279,6.56713 -4.06279,6.56713 z m 1.84213,-24.28341 -1.32245,8.88186 -1.79566,-3.63759 c 0,0 2.26791,-3.96849 3.11811,-5.24427 z m -0.425,-25.70074 c 0,0 2.12598,10.06297 1.88995,12.70883 -0.23642,2.64547 -1.79547,5.90551 -2.40964,7.18089 0,0 1.937,-6.99191 -0.89744,-11.99997 z m -1.41713,1.65354 -0.89783,4.11043 -0.80315,-1.74823 z m -12.37812,-1.03936 1.41732,7.22852 c 0,0 -1.13386,2.83444 -1.03937,5.90549 0.14173,3.02343 0.80334,6.94468 4.11042,11.62183 0,0 -3.68523,-3.16555 -5.85844,-10.62989 -1.18091,-4.11003 1.37007,-14.12595 1.37007,-14.12595 z m 1.51181,0.89782 0.7559,3.59035 0.66122,-1.51161 z m 4.2992,0.75571 1.03937,20.92909 c 0,0 -1.1811,-0.47225 -1.46456,1.13386 0,0 -2.31496,-2.69291 -2.73996,-8.40924 -0.37815,-5.71652 3.16515,-13.65371 3.16515,-13.65371 z m -71.12714,112.86569 c 0,0 -1.84211,2.31516 -2.3618,3.16554 0,0 3.16515,-0.0472 5.29113,-1.22854 2.17322,-1.1809 3.59034,-2.7874 4.15747,-4.86613 0,0 -3.87421,2.22066 -7.0868,2.92913 z m -20.12574,-19.51177 c 0,0 6.89762,-2.22026 10.20471,-2.6929 3.25983,-0.51969 9.49585,0 15.49602,4.86612 z m -1.65353,16.44111 c 0,0 7.08679,-0.8504 12.99229,-1.88976 5.4803,0.70846 13.84228,-0.80315 17.71649,-2.83483 v 1.46456 c 0,0 -1.74822,1.79546 -6.04742,3.82676 -4.29921,2.07873 -6.99211,2.7874 -9.77951,2.69291 -2.78739,-0.14174 -10.62989,-1.88957 -14.88185,-3.25964 z m 5.90549,-4.34644 c 0,0 2.03149,1.03916 4.06279,1.60609 l -8.36199,1.46477 c 0,0 3.59035,-2.55118 4.2992,-3.07086 z m -1.60629,-2.74036 25.79522,0.28346 c 0,0 -1.84252,1.70098 -6.94487,2.7876 -5.10255,1.13366 -7.55904,0.99212 -9.49604,0.47244 -1.93721,-0.51969 -8.31494,-3.07086 -9.35431,-3.5435 z m -2.12599,-0.99192 c 0,0 6.14152,-2.83464 10.72439,-3.82677 4.58266,-1.03937 11.386,-1.79526 17.24407,3.25964 0,0 -16.48816,0.28347 -20.26749,0.4252 -3.82676,0.0945 -7.70097,0.14193 -7.70097,0.14193 z m 0.56694,-7.13384 12.70844,1.51181 c 0,0 -3.25965,0.18877 -7.03936,1.46456 0,0 -4.58247,-2.26772 -5.66908,-2.97637 z m -32.97651,-9.874 8.59841,5.95255 c 1.74823,5.62203 3.82676,7.03935 6.80334,9.0236 2.92892,1.98424 7.41749,3.77971 7.41749,3.77971 0,0 -3.40176,-0.37815 -7.51198,-2.03168 -4.06299,-1.6061 -6.04723,-3.07086 -7.0866,-4.15728 -1.08662,-1.08681 -5.10255,-6.94487 -8.22066,-12.5669 z m 6.56711,0.37776 1.13387,3.40157 -5.99999,-4.15748 z m 1.84272,-1.13386 17.76354,18.28362 c 0,0 -1.37007,0.23602 -5.29133,-1.98425 -3.9683,-2.22067 -6.99231,-4.96062 -7.79526,-6.14191 -0.8502,-1.1809 -3.1179,-6.14172 -4.67695,-10.15746 z m -0.7561,-2.22027 c 0,0 6.99211,2.50373 11.10214,5.43286 4.15786,2.88189 8.45687,6.94487 8.97655,13.93697 0,0 -5.43286,-5.29112 -8.83462,-8.55116 -3.40157,-3.21258 -11.24407,-10.81867 -11.24407,-10.81867 z m 6.09447,-2.97657 4.7244,6.14192 c 0,0 -1.51181,-1.08681 -3.59053,-2.12598 z m -0.23622,-1.88956 c 0,0 7.74821,3.59054 10.81887,6.37794 3.02342,2.7872 5.05511,8.88167 5.05511,8.88167 0,0 -1.32283,0.23642 -1.22834,0.99232 0.14193,0.80315 0.33052,0.99193 2.0315,1.88976 l 0.14172,1.65335 c 0,0 -1.41712,-1.7006 -2.17322,-2.4567 0,0 -0.23622,-2.59841 -5.52754,-6.61395 z m -1.46456,-27.25978 -0.28346,16.34642 c 0,0 0.61418,2.26771 0,4.62971 l -0.047,3.40157 c 0,0 0.33052,-0.23603 1.18091,0.37815 0,0 1.51161,-2.69291 2.55098,-6.51967 1.13386,-4.11042 0.85059,-6.42518 -0.80296,-11.24427 -1.65353,-4.81869 -2.59841,-6.99191 -2.59841,-6.99191 z m -3.11791,6.47223 1.74764,4.2994 0.42559,-8.78738 z m -3.40175,-2.88169 0.6614,25.22809 c 0,0 2.0315,-1.79507 3.2126,-5.71632 1.1813,-3.87382 0.70866,-8.17321 -0.89783,-12.66139 -1.65315,-4.44094 -2.97617,-6.85038 -2.97617,-6.85038 z m -1.84253,0.4252 1.1809,24.09423 c 0,0 -1.65354,-1.84251 -3.07066,-5.9055 -1.41731,-4.06278 -1.65354,-7.84229 -0.33051,-11.95252 1.36988,-4.06299 2.22027,-6.23621 2.22027,-6.23621 z m -6.80332,-3.82677 2.5984,10.20451 1.55906,-4.48798 z m -1.22835,1.51162 3.11849,12.09465 c 0,0 -0.94526,3.16535 1.74764,10.2047 0,0 -3.59035,-3.16534 -5.43286,-9.63776 -1.08642,-3.73248 0.56673,-12.66159 0.56673,-12.66159 z m 19.37004,-27.68479 -1.36989,11.14978 c 1.22836,2.92894 0.51969,8.78686 -1.32303,11.66887 0,0 0.61417,0.0945 0.80335,0.66162 2.17323,-2.59842 4.11023,-8.07872 4.34644,-11.10214 0.23603,-3.02382 -1.93719,-10.77163 -2.45687,-12.37813 z m -3.73228,4.48819 1.27578,3.07086 0.94488,-6.70865 z m -3.87381,-3.96851 -0.47264,26.31491 c 0,0 2.31516,-1.84271 3.77972,-6.2362 1.51199,-4.39369 0.14173,-10.6299 -0.94488,-13.79506 -1.08681,-3.16554 -2.3622,-6.28365 -2.3622,-6.28365 z m -1.08642,2.0317 -1.08681,22.62948 c 0,0 -0.18898,-0.66123 -1.13385,-0.56673 0,0 -2.17322,-5.10256 -2.03169,-10.25176 0.14193,-3.82676 4.25235,-11.81099 4.25235,-11.81099 z m -4.67755,21.54307 c -3.63759,-8.31515 -1.65354,-12.42498 -1.65354,-12.42498 l -1.65353,-12.8978 c 0,0 -1.55905,6.18895 -2.0313,8.40942 -0.4252,2.22067 -0.99213,5.38582 1.27559,10.34623 2.22067,5.05511 4.06278,6.56713 4.06278,6.56713 z m -1.84211,-24.28341 1.32243,8.88186 1.79566,-3.63759 c 0,0 -2.26791,-3.96849 -3.11809,-5.24427 z m 0.42499,-25.70074 c 0,0 -2.12597,10.06297 -1.88995,12.70883 0.23642,2.64547 1.79546,5.90551 2.40964,7.18089 0,0 -1.93701,-6.99191 0.89743,-11.99997 z m 1.41712,1.65354 0.89784,4.11043 0.80314,-1.74823 z m 12.37812,-1.03936 -1.41731,7.22852 c 0,0 1.13385,2.83444 1.03936,5.90549 -0.14173,3.02343 -0.80334,6.94468 -4.11042,11.62183 0,0 3.68523,-3.16555 5.85846,-10.62989 1.1809,-4.11003 -1.37009,-14.12595 -1.37009,-14.12595 z m -1.51181,0.89782 -0.75589,3.59035 -0.66122,-1.51161 z m -4.29919,0.75571 -1.03938,20.92909 c 0,0 1.18111,-0.47225 1.46458,1.13386 0,0 2.31495,-2.69291 2.73994,-8.40924 0.37816,-5.71652 -3.16514,-13.65371 -3.16514,-13.65371 z"
       style="fill:#00a88e;fill-opacity:1;fill-rule:evenodd;stroke-width:0.65616655"
       id="path16-0"
       inkscape:connector-curvature="0"
       inkscape:export-filename="C:\Users\suitedoalex\sites\argentina-national-football-team-logo-4.png"
       inkscape:export-xdpi="177.69354"
       inkscape:export-ydpi="177.69354" />
    <path
       d="M 241.00867,91.215408 H 356.00002 V 132.64838 H 241.00867 Z"
       style="fill:#9fcdef;fill-opacity:1;fill-rule:evenodd;stroke-width:0.65616655"
       id="path18-3"
       inkscape:connector-curvature="0"
       inkscape:export-filename="C:\Users\suitedoalex\sites\argentina-national-football-team-logo-4.png"
       inkscape:export-xdpi="177.69354"
       inkscape:export-ydpi="177.69354" />
    <path
       style="fill:#bcdcf5;fill-opacity:1;stroke:none;stroke-width:0.70671082px;stroke-linecap:butt;stroke-linejoin:miter;stroke-opacity:1"
       d="M 243.25577,94.093741 H 354.46532 V 129.50412 Z"
       id="path5043"
       inkscape:connector-curvature="0"
       sodipodi:nodetypes="cccc"
       inkscape:export-filename="C:\Users\suitedoalex\sites\argentina-national-football-team-logo-4.png"
       inkscape:export-xdpi="177.69354"
       inkscape:export-ydpi="177.69354" />
    <path
       d="m 242.5439,107.77442 h 111.92088 v 8.31494 H 242.5439 Z"
       style="fill:#ffffff;fill-rule:evenodd;stroke-width:0.65616655"
       id="path20-9"
       inkscape:connector-curvature="0"
       inkscape:export-filename="C:\Users\suitedoalex\sites\argentina-national-football-team-logo-4.png"
       inkscape:export-xdpi="177.69354"
       inkscape:export-ydpi="177.69354" />
    <path
       d="m 298.70086,40.779614 4.94206,10.51918 11.53155,1.449555 -8.47716,7.950714 2.1848,11.415266 -10.18125,-5.605414 -10.18131,5.605414 2.18486,-11.415266 -8.47724,-7.950714 11.5316,-1.449555 z"
       style="fill:url(#radialGradient4524-5-8-7-3-8-9-9);fill-opacity:1;fill-rule:evenodd;stroke:#ffffff;stroke-width:4.23178434;stroke-linecap:round;stroke-linejoin:round;stroke-miterlimit:4;stroke-dasharray:none;paint-order:stroke markers fill"
       id="path22-5-9-9-2-6-5-3-7-6"
       inkscape:connector-curvature="0"
       sodipodi:nodetypes="ccccccccccc"
       inkscape:export-filename="C:\Users\suitedoalex\sites\argentina-national-football-team-logo-4.png"
       inkscape:export-xdpi="177.69354"
       inkscape:export-ydpi="177.69354" />
    <path
       d="m 260.863,51.874521 3.22696,6.86855 7.52956,0.946493 -5.5352,5.191454 1.42657,7.453646 -6.64789,-3.660079 -6.64793,3.660079 1.42662,-7.453646 -5.53526,-5.191454 7.52961,-0.946493 z"
       style="fill:url(#radialGradient4524-5-8-8-7-1);fill-opacity:1;fill-rule:evenodd;stroke:#ffffff;stroke-width:4.19079542;stroke-linecap:round;stroke-linejoin:round;stroke-miterlimit:4;stroke-dasharray:none;paint-order:stroke markers fill"
       id="path22-5-9-9-2-6-59-1"
       inkscape:connector-curvature="0"
       sodipodi:nodetypes="ccccccccccc"
       inkscape:export-filename="C:\Users\suitedoalex\sites\argentina-national-football-team-logo-4.png"
       inkscape:export-xdpi="177.69354"
       inkscape:export-ydpi="177.69354" />
    <path
       d="m 336.17073,51.972435 3.22695,6.86855 7.52957,0.946493 -5.5352,5.191454 1.42657,7.453644 -6.64789,-3.660078 -6.64793,3.660078 1.42662,-7.453644 -5.53526,-5.191454 7.52961,-0.946493 z"
       style="fill:url(#radialGradient4524-5-8-8-7-6-8);fill-opacity:1;fill-rule:evenodd;stroke:#ffffff;stroke-width:4.19079542;stroke-linecap:round;stroke-linejoin:round;stroke-miterlimit:4;stroke-dasharray:none;paint-order:stroke markers fill"
       id="path22-5-9-9-2-6-59-0-8"
       inkscape:connector-curvature="0"
       sodipodi:nodetypes="ccccccccccc"
       inkscape:export-filename="C:\Users\suitedoalex\sites\argentina-national-football-team-logo-4.png"
       inkscape:export-xdpi="177.69354"
       inkscape:export-ydpi="177.69354" />
  </g>
</svg>
